<svg xmlns="http://www.w3.org/2000/svg" width="488.04" height="492.004" viewBox="0 0 488.04 492.004">
  <g id="Groupe_2988" data-name="Groupe 2988" transform="translate(2691 266)">
    <g id="next" transform="translate(-2792.478 -266)">
      <g id="Groupe_2986" data-name="Groupe 2986">
        <path id="Tracé_231" data-name="Tracé 231" d="M382.678,226.8,163.73,7.86a26.972,26.972,0,0,0-38.064,0L109.542,23.98a26.95,26.95,0,0,0,0,38.064L293.4,245.9,109.338,429.96a26.977,26.977,0,0,0,0,38.068l16.124,16.116a26.972,26.972,0,0,0,38.064,0L382.678,265a27.161,27.161,0,0,0,0-38.2Z" fill="#fff"/>
      </g>
    </g>
    <g id="prev" transform="translate(-2593.48 -266)">
      <g id="Groupe_2987" data-name="Groupe 2987">
        <path id="Tracé_232" data-name="Tracé 232" d="M198.608,246.1,382.664,62.04a26.972,26.972,0,0,0,0-38.056L366.536,7.864a26.957,26.957,0,0,0-38.06,0L109.328,227.008a27.161,27.161,0,0,0,0,38.2L328.272,484.136a26.962,26.962,0,0,0,38.064,0l16.124-16.12a26.945,26.945,0,0,0,0-38.06Z" fill="#fff"/>
      </g>
    </g>
  </g>
</svg>
