<svg xmlns="http://www.w3.org/2000/svg" xmlns:xlink="http://www.w3.org/1999/xlink" width="200" height="200" viewBox="0 0 200 200">
  <defs>
    <clipPath id="clip-email">
      <rect width="200" height="200"/>
    </clipPath>
  </defs>
  <g id="email" clip-path="url(#clip-email)">
    <path id="email-2" data-name="email" d="M171.439,59.882H17.735A17.755,17.755,0,0,0,0,77.617V184.028a17.755,17.755,0,0,0,17.735,17.735h153.7a17.755,17.755,0,0,0,17.735-17.735V77.617a17.755,17.755,0,0,0-17.735-17.735Zm0,11.823a5.877,5.877,0,0,1,2.266.458L94.587,140.735,15.469,72.163a5.884,5.884,0,0,1,2.266-.458Zm0,118.234H17.735a5.916,5.916,0,0,1-5.912-5.912V84.655l78.89,68.371a5.92,5.92,0,0,0,7.748,0l78.89-68.371v99.373A5.916,5.916,0,0,1,171.439,189.939Z" transform="translate(5.413 -30.343)" fill="#dbdbdb"/>
  </g>
</svg>
