<svg xmlns="http://www.w3.org/2000/svg" xmlns:xlink="http://www.w3.org/1999/xlink" width="200" height="200" viewBox="0 0 200 200">
  <defs>
    <clipPath id="clip-instagram">
      <rect width="200" height="200"/>
    </clipPath>
  </defs>
  <g id="instagram" clip-path="url(#clip-instagram)">
    <g id="instagram-2" data-name="instagram" transform="translate(10.973 10.53)">
      <path id="Tracé_214" data-name="Tracé 214" d="M178.494,52.489c-.418-9.486-1.952-16.008-4.15-21.659A45.734,45.734,0,0,0,148.221,4.708c-5.684-2.2-12.171-3.732-21.658-4.15C117.007.1,113.973,0,89.733,0S62.46.1,52.939.523c-9.486.418-16.008,1.954-21.658,4.15A43.561,43.561,0,0,0,15.446,15,43.956,43.956,0,0,0,5.158,30.8c-2.2,5.685-3.732,12.171-4.15,21.658C.554,62.011.449,65.045.449,89.284s.1,27.273.523,36.795c.418,9.486,1.954,16.008,4.151,21.659A45.726,45.726,0,0,0,31.246,173.86c5.685,2.2,12.171,3.732,21.659,4.15,9.52.42,12.556.523,36.795.523s27.273-.1,36.795-.523c9.486-.418,16.008-1.952,21.658-4.15a45.665,45.665,0,0,0,26.123-26.122c2.2-5.685,3.732-12.173,4.15-21.659.418-9.522.523-12.556.523-36.795S178.913,62.011,178.494,52.489Zm-16.077,72.892c-.384,8.719-1.849,13.427-3.069,16.566A29.616,29.616,0,0,1,142.4,158.9c-3.139,1.221-7.881,2.685-16.566,3.068-9.417.42-12.241.523-36.062.523s-26.681-.1-36.063-.523c-8.719-.383-13.428-1.847-16.566-3.068a27.472,27.472,0,0,1-10.253-6.662,27.757,27.757,0,0,1-6.662-10.253c-1.221-3.139-2.685-7.883-3.068-16.566-.42-9.417-.523-12.242-.523-36.063s.1-26.681.523-36.062c.383-8.719,1.847-13.428,3.068-16.566a27.136,27.136,0,0,1,6.7-10.255A27.714,27.714,0,0,1,37.175,19.81c3.139-1.221,7.883-2.685,16.566-3.069,9.417-.418,12.242-.523,36.062-.523,23.856,0,26.681.1,36.063.523,8.719.384,13.427,1.849,16.566,3.069a27.452,27.452,0,0,1,10.253,6.661,27.751,27.751,0,0,1,6.662,10.255c1.221,3.139,2.685,7.881,3.069,16.566.418,9.417.523,12.241.523,36.062S162.835,115.965,162.417,125.382Zm0,0" transform="translate(-0.449 0)" fill="#dbdbdb"/>
      <path id="Tracé_215" data-name="Tracé 215" d="M170.812,124.5a45.863,45.863,0,1,0,45.863,45.863A45.874,45.874,0,0,0,170.812,124.5Zm0,75.613a29.75,29.75,0,1,1,29.75-29.75A29.755,29.755,0,0,1,170.812,200.113Zm0,0" transform="translate(-81.528 -81.079)" fill="#dbdbdb"/>
      <path id="Tracé_216" data-name="Tracé 216" d="M383.864,99.308A10.708,10.708,0,1,1,373.156,88.6,10.708,10.708,0,0,1,383.864,99.308Zm0,0" transform="translate(-236.196 -57.7)" fill="#dbdbdb"/>
    </g>
  </g>
</svg>
