<svg xmlns="http://www.w3.org/2000/svg" xmlns:xlink="http://www.w3.org/1999/xlink" width="200" height="200" viewBox="0 0 200 200">
  <defs>
    <clipPath id="clip-twitter">
      <rect width="200" height="200"/>
    </clipPath>
  </defs>
  <g id="twitter" clip-path="url(#clip-twitter)">
    <g id="twitter-2" data-name="twitter" transform="translate(6.421 24.141)">
      <g id="Groupe_2985" data-name="Groupe 2985" transform="translate(0 0)">
        <path id="Tracé_220" data-name="Tracé 220" d="M187.082,65.995a79.963,79.963,0,0,1-22.1,6.057,38.138,38.138,0,0,0,16.872-21.2,76.647,76.647,0,0,1-24.321,9.284A38.351,38.351,0,0,0,91.191,86.363a39.492,39.492,0,0,0,.889,8.746A108.559,108.559,0,0,1,13.026,54.992a38.364,38.364,0,0,0,11.786,51.26,37.877,37.877,0,0,1-17.328-4.724v.421a38.53,38.53,0,0,0,30.728,37.685A38.279,38.279,0,0,1,28.156,140.9a33.912,33.912,0,0,1-7.261-.655A38.718,38.718,0,0,0,56.732,166.96,77.064,77.064,0,0,1,9.179,183.318,71.838,71.838,0,0,1,0,182.792,107.975,107.975,0,0,0,58.837,200C129.414,200,168,141.541,168,90.865c0-1.7-.058-3.332-.14-4.958A76.512,76.512,0,0,0,187.082,65.995Z" transform="translate(0 -48)" fill="#dbdbdb"/>
      </g>
    </g>
  </g>
</svg>
